<svg xmlns="http://www.w3.org/2000/svg" viewBox="0 0 512 512"><defs><linearGradient id="g" x1="0" y1="0" x2="1" y2="1"><stop stop-color="#6657f5"/><stop offset="1" stop-color="#21b4a7"/></linearGradient></defs><rect width="512" height="512" rx="120" fill="url(#g)"/><path d="M124 183c46-69 153-81 220-22 18 16 31 34 40 55h-65c-9-14-21-25-36-33-36-19-84-10-109 21-18 22-24 50-17 77 9 35 39 62 75 67 37 5 74-12 93-44h68c-25 82-112 133-197 112-87-21-139-109-116-195 8-29 23-55 44-78z" fill="#fff"/></svg>
